<svg width="193" height="40" viewBox="0 0 193 40" fill="none" xmlns="http://www.w3.org/2000/svg">
<g clip-path="url(#clip0_38_415)">
<path d="M129.768 26.778C130.138 25.9406 130.746 25.5218 131.583 25.5218C132.562 25.5218 133.351 26.315 133.351 27.4302C133.351 28.8273 132.465 30.317 130.698 31.9033C128.975 33.4856 126.647 34.2788 123.761 34.2788C120.874 34.2788 118.358 33.393 116.449 31.6255C114.541 29.8097 113.47 27.5752 113.329 24.8736C113.188 22.6834 113.188 20.4489 113.329 18.2627C113.47 15.5128 114.541 13.3266 116.449 11.6034C118.406 9.88017 120.826 9.04272 123.761 9.04272C126.696 9.04272 128.93 9.83588 130.653 11.4665C132.377 13.0488 133.262 14.5384 133.262 15.8912C133.262 17.0105 132.469 17.7996 131.495 17.7996C130.657 17.7996 130.05 17.3809 129.679 16.5435C128.608 13.9345 126.374 12.5858 123.813 12.5858C119.9 12.5858 117.431 14.9129 117.105 18.5002C116.964 20.2717 116.964 22.317 117.105 24.6482C117.431 28.2355 119.855 30.7478 123.813 30.7478C126.374 30.7478 128.701 29.399 129.776 26.7901L129.768 26.778Z" fill="white"/>
<path d="M141.025 4.93613C140.139 5.86617 138.649 5.86617 137.763 4.93613C136.878 4.00608 136.878 2.51237 137.763 1.63064C138.649 0.700594 140.139 0.700594 141.025 1.63064C141.955 2.5164 141.955 4.00608 141.025 4.93613Z" fill="white"/>
<path d="M141.307 32.0886C141.307 33.2078 140.514 34.0453 139.398 34.0453C138.42 34.0453 137.534 33.2078 137.534 32.0886V11.3176C137.534 10.2466 138.327 9.36084 139.398 9.36084C140.469 9.36084 141.307 10.2466 141.307 11.3176V32.0886Z" fill="white"/>
<path d="M164.59 26.3795C165.709 26.3795 166.498 25.5421 166.498 24.4228V2.70159C166.498 1.63063 165.661 0.744873 164.59 0.744873C163.519 0.744873 162.726 1.63063 162.726 2.70159V10.3714C161.22 9.48569 159.44 9.03878 157.371 9.03878C151.642 9.03878 147.591 12.7187 147.08 18.6774C146.939 20.2154 146.895 22.0755 147.032 24.2658C147.358 30.3654 151.271 34.2788 157.604 34.2788C160.35 34.2788 163.519 33.6749 165.008 32.7892C165.705 32.3704 166.031 31.8108 166.031 31.1102C166.031 29.9467 164.868 29.0166 163.33 29.6206C161.047 30.4137 159.183 30.8324 157.649 30.8324C153.502 30.8324 150.712 28.2718 150.712 23.988V20.0745C150.571 15.3719 152.946 12.4369 157.419 12.4369C159.843 12.4369 161.679 13.4676 162.73 15.1948V24.4228C162.73 25.5421 163.615 26.3795 164.594 26.3795H164.59Z" fill="white"/>
<path d="M189.934 11.8771C188.119 9.96874 185.695 9.03467 182.667 9.03467C176.938 9.03467 172.888 12.7146 172.376 18.6733C172.235 20.2113 172.191 22.0714 172.328 24.2616C172.654 30.3613 176.568 34.2747 182.901 34.2747C185.647 34.2747 188.815 33.6708 190.305 32.785C191.001 32.3663 191.327 31.8067 191.327 31.1061C191.327 29.9426 190.164 29.0125 188.626 29.6164C186.343 30.4096 184.479 30.8283 182.945 30.8283C178.798 30.8283 176.008 28.2677 176.008 23.9838V20.0704C175.867 15.3678 178.242 12.4328 182.716 12.4328C186.766 12.4328 189.234 15.2752 189.004 19.5108C188.96 19.8771 188.775 20.0623 188.413 20.0664H183.376C182.434 20.0664 181.729 20.8112 181.729 21.6366C181.729 22.5787 182.434 23.243 183.376 23.243H189.178C189.202 23.243 189.508 23.243 189.532 23.243H189.934C191.75 23.243 192.684 22.3492 192.684 20.5334V19.1363C192.684 16.157 191.754 13.7332 189.934 11.8691V11.8771Z" fill="white"/>
<path d="M53.7615 29.9105C53.999 29.9105 54.2366 30.0071 54.4741 30.1963C56.3302 31.7665 58.7097 32.5275 61.7051 32.5275C65.5099 32.5275 68.1269 30.2446 68.1269 27.2452C68.1269 24.7248 65.844 23.2955 62.9412 22.6795C58.8023 21.7293 53.379 20.7751 53.4716 15.8752C53.4716 11.7363 56.6603 9.02271 61.6085 9.02271C63.843 9.02271 65.9366 9.68702 67.8893 10.9714C68.461 11.3981 68.5094 11.8773 68.0786 12.4007C67.7444 12.7831 67.3176 12.7831 66.7459 12.4007C65.1757 11.3055 63.4646 10.7821 61.6085 10.7821C57.5662 10.7821 55.2311 12.5899 55.2311 15.8712C55.2311 22.5305 69.8863 18.3433 69.8863 27.2411C69.8863 31.4283 66.6976 34.2829 61.7494 34.2829C58.3715 34.2829 55.5652 33.377 53.2824 31.5693C53.0448 31.4283 52.8999 31.1425 52.8999 30.8083C52.8999 30.2849 53.2341 29.9024 53.7575 29.9024L53.7615 29.9105Z" fill="white"/>
<path d="M111.428 10.3554C111.428 10.7379 111.142 11.1646 110.619 11.1646C110.285 11.1646 108.288 10.7821 106.814 10.7821C103.058 10.8305 101.391 12.449 101.391 16.1128V33.1475C101.391 33.7675 101.105 34.0494 100.485 34.0494C99.9616 34.0494 99.6274 33.6709 99.6274 33.1475V16.0645C99.6274 11.4988 102.196 9.02271 106.81 9.02271C108.191 9.02271 109.475 9.16362 110.615 9.44948C111.138 9.59039 111.424 9.92457 111.424 10.3554H111.428Z" fill="white"/>
<path d="M91.2493 11.8329C89.4899 9.97679 87.207 9.02661 84.3042 9.02661C81.4013 9.02661 79.1668 9.88419 77.3107 11.5953C75.4546 13.3064 74.4562 15.6376 74.3112 18.6371C74.1703 20.3965 74.1703 22.156 74.2146 23.9194C74.5488 30.3895 78.0676 34.2908 84.5377 34.2908C85.6811 34.2908 86.9655 34.1499 88.3907 33.8157C89.8643 33.4816 90.9594 33.1514 91.7687 32.7206C92.1512 32.5314 92.3404 32.2455 92.3404 31.863C92.3404 31.4363 92.0062 31.0055 91.4828 31.0055C91.2936 31.0055 91.1486 31.0538 91.0077 31.1021C88.7692 32.0523 86.583 32.5274 84.441 32.5274C79.3037 32.5274 75.974 29.246 75.974 23.7262V20.6824C75.8331 14.3532 78.7319 10.786 84.3001 10.786C89.2966 10.786 92.3887 14.2606 92.1512 19.9214C92.1029 20.4448 91.8653 20.6824 91.3902 20.6824H83.8613H81.5181C81.051 20.6824 80.6685 21.0649 80.6685 21.5319V21.5842C80.6685 22.0513 81.051 22.4338 81.5181 22.4338H83.8613L91.4385 22.4378C93.1054 22.4378 93.9146 21.6768 93.9146 20.1066V18.8223C93.9146 16.016 93.0087 13.6849 91.2493 11.8288V11.8329Z" fill="white"/>
<path d="M25.3284 29.2784C25.0305 32.286 22.3491 34.4843 19.3375 34.1863C19.0999 34.1622 18.8664 34.1179 18.641 34.0655C7.30729 31.7666 -0.797389 23.7143 0.0642119 15.0258C0.9701 5.88637 11.4583 -0.615895 23.8226 0.0443967C16.024 0.769107 7.62939 4.99659 7.06572 10.9553C6.51816 16.7248 12.489 21.6166 22.1035 23.7384C24.2011 24.6725 25.566 26.8667 25.3284 29.2784Z" fill="white"/>
<path d="M42.492 24.9704C41.5862 34.1058 31.102 40.6121 18.7376 39.9518C26.5363 39.2271 34.9269 34.9996 35.4946 29.0369C36.0381 23.2673 30.0713 18.3755 20.4568 16.2538C18.3592 15.3237 16.9943 13.1254 17.2319 10.7178C17.5298 7.7062 20.2112 5.50791 23.2188 5.80585C23.4603 5.83 23.6898 5.87429 23.9193 5.92663C35.253 8.22558 43.3536 16.2819 42.492 24.9704Z" fill="white"/>
<path opacity="0.5" d="M21.9789 23.6818C22.0192 23.6979 22.0634 23.7181 22.1037 23.7382C12.4892 21.6164 6.5184 16.7246 7.06596 10.9551C7.62963 4.99638 16.0242 0.7689 23.8229 0.0441895H23.8672C16.5556 2.14182 11.4988 6.51827 11.3418 11.7201C11.1968 16.636 15.4605 21.0729 21.9789 23.6818Z" fill="white"/>
<path opacity="0.5" d="M35.4946 29.0368C34.9269 34.9995 26.5363 39.227 18.7376 39.9517C18.7215 39.9477 18.7095 39.9477 18.6934 39.9477C26.0049 37.8541 31.0618 33.4776 31.2147 28.2758C31.3637 23.3599 27.1 18.919 20.5816 16.3141C20.5373 16.298 20.4971 16.2738 20.4568 16.2537C30.0713 18.3755 36.0381 23.2673 35.4946 29.0368Z" fill="white"/>
</g>
<defs>
<clipPath id="clip0_38_415">
<rect width="192.684" height="40" fill="white"/>
</clipPath>
</defs>
</svg>
